<svg width="119" height="60" viewBox="0 0 119 60" fill="none" xmlns="http://www.w3.org/2000/svg">
<path d="M104.176 19.7496L104.189 19.728C104.343 19.4968 104.655 19.4344 104.887 19.5885C104.957 19.6352 105.011 19.6966 105.049 19.7659C106.583 21.9558 108.899 25.2536 111.393 28.8005C113.847 32.2888 116.319 35.7991 118.167 38.4163C118.326 38.6431 118.272 38.9565 118.045 39.1162C117.946 39.1856 117.831 39.2144 117.719 39.2062L113.27 39.1565C113.097 39.155 112.945 39.0663 112.856 38.932L104.607 27.1354L99.3835 34.5948L106.635 34.5912C106.912 34.5912 107.136 34.8157 107.136 35.0924C107.136 35.2093 107.096 35.3165 107.029 35.4018L104.504 38.9682C104.406 39.106 104.252 39.1797 104.095 39.18L96.0522 39.1858C95.9996 39.204 95.9443 39.2131 95.8887 39.2131V39.2153H91.5104C91.2325 39.2153 91.007 38.99 91.007 38.712C91.007 38.5881 91.0516 38.4749 91.1259 38.3872L104.176 19.7496ZM91.9057 23.9784C91.8369 24.0986 91.7086 24.1805 91.5609 24.1835L91.5603 24.1839H86.3004V38.7885C86.3004 39.0074 86.12 39.1878 85.9011 39.1878H82.002C81.7831 39.1878 81.6027 39.0082 81.6027 38.7885V24.1838H74.3215L74.3213 24.1836H74.3199C74.0957 24.1836 73.9137 23.929 73.9137 23.7773C73.9137 23.6256 73.9363 23.6243 73.9754 23.562L73.9727 23.557L76.6788 19.6668L76.6797 19.6663C76.7531 19.562 76.8745 19.4937 77.012 19.4937H77.0122L77.0137 19.4929L94.2461 19.4937H94.2513C94.4757 19.4909 94.6577 19.7364 94.6577 19.9C94.6577 20.0635 94.6195 20.0965 94.5566 20.168L91.9057 23.9784ZM69.8547 23.9784C69.786 24.0986 69.6577 24.1805 69.51 24.1835L69.5093 24.1839H64.2494V38.7885C64.2494 39.0074 64.069 39.1878 63.8502 39.1878H59.9511C59.7321 39.1878 59.5518 39.0082 59.5518 38.7885V24.1838H52.2706L52.2705 24.1836H52.269C52.0447 24.1836 51.8627 23.929 51.8627 23.7773C51.8627 23.6256 51.8854 23.6243 51.9245 23.562L51.9217 23.557L54.6278 19.6668L54.6287 19.6663C54.7022 19.562 54.8237 19.4937 54.9611 19.4937H54.9613L54.9627 19.4929L72.1952 19.4937H72.2004C72.4247 19.4909 72.6067 19.7364 72.6067 19.9C72.6067 20.0635 72.5685 20.0965 72.5056 20.168L69.8547 23.9784ZM47.0917 23.9784C47.023 24.0986 46.8947 24.1805 46.747 24.1835L46.7463 24.1839L30.1115 24.1838L30.1113 24.1836H30.1099C29.8855 24.1836 29.7036 24.0016 29.7036 23.7773C29.7036 23.6982 29.7263 23.6243 29.7654 23.562L29.7626 23.557L32.4687 19.6668L32.4695 19.6663C32.543 19.562 32.6645 19.4937 32.8019 19.4937H32.8021L32.8036 19.4929L49.4322 19.4937H49.4374C49.6617 19.4909 49.8437 19.7364 49.8437 19.9C49.8437 20.0635 49.8055 20.0965 49.7426 20.168L47.0917 23.9784ZM47.0917 38.9764C47.023 39.0967 46.8947 39.1785 46.747 39.1814L46.7463 39.1818H30.1115L30.1113 39.1817H30.1099C29.8855 39.1817 29.7036 38.9996 29.7036 38.7753C29.7036 38.7426 29.7076 38.711 29.7148 38.6805V31.3711C29.7076 31.3408 29.7036 31.309 29.7036 31.2763C29.7036 31.1972 29.7263 31.1234 29.7654 31.061L29.7626 31.0561L32.4687 27.1658L32.4695 27.1654C32.543 27.0609 32.6645 26.9927 32.8019 26.9927H32.8021L32.8036 26.992L49.4322 26.9928L49.4374 26.9927C49.6617 26.9898 49.8437 27.2355 49.8437 27.399C49.8437 27.5625 49.8055 27.5955 49.7426 27.667L47.0917 31.4774C47.023 31.5976 46.8947 31.6794 46.747 31.6825L46.7463 31.6828L34.4706 31.6828V34.4911L49.4322 34.4918L49.4374 34.4917C49.6617 34.4888 49.8437 34.7344 49.8437 34.8979C49.8437 35.0615 49.8055 35.0945 49.7426 35.166L47.0917 38.9764ZM1.43632 19.4939H5.32534C5.33553 19.4937 5.34588 19.4938 5.35596 19.4944L5.35734 19.4945L5.35978 19.4947C5.49244 19.5027 5.60807 19.5763 5.67467 19.6832L13.7026 31.2513L21.7302 19.6832C21.7969 19.5763 21.9124 19.5027 22.0452 19.4947L22.0476 19.4945L22.049 19.4944C22.0592 19.4938 22.0693 19.4937 22.0796 19.4939H25.9686C26.1882 19.4939 26.3679 19.6735 26.3679 19.8931V38.7885C26.3679 39.0082 26.1882 39.1878 25.9686 39.1878H22.0694C21.8498 39.1878 21.6702 39.0082 21.6702 38.7885V28.0093L14.8295 37.867L14.0626 38.9722C13.9952 39.1009 13.8605 39.1887 13.7053 39.1887C13.5875 39.1887 13.4817 39.1384 13.408 39.058C13.3975 39.0484 13.3878 39.0375 13.379 39.025L12.5755 37.867L5.73474 28.0093V38.7885C5.73474 39.0082 5.55516 39.1878 5.33553 39.1878H1.43632C1.21668 39.1878 1.03711 39.0082 1.03711 38.7885V19.8931C1.03711 19.6735 1.21668 19.4939 1.43632 19.4939Z" fill="black"/>
<path d="M116.242 17.5967C116.632 17.5967 117.012 17.6964 117.383 17.8969C117.754 18.0962 118.043 18.3828 118.25 18.7543C118.457 19.1269 118.561 19.5153 118.561 19.9183C118.561 20.3181 118.459 20.7033 118.254 21.0716C118.051 21.441 117.765 21.7276 117.397 21.9312C117.029 22.1357 116.643 22.2376 116.242 22.2376C115.84 22.2376 115.455 22.1357 115.087 21.9312C114.719 21.7276 114.432 21.441 114.227 21.0716C114.023 20.7033 113.92 20.3181 113.92 19.9183C113.92 19.5153 114.024 19.1269 114.232 18.7543C114.44 18.3828 114.73 18.0962 115.101 17.8969C115.472 17.6964 115.852 17.5967 116.242 17.5967ZM116.242 17.9809C115.916 17.9809 115.598 18.0648 115.29 18.2318C114.981 18.3985 114.74 18.6379 114.565 18.9485C114.391 19.259 114.304 19.5824 114.304 19.9183C114.304 20.253 114.39 20.5731 114.561 20.8795C114.732 21.186 114.972 21.4254 115.279 21.5964C115.587 21.7674 115.908 21.8535 116.242 21.8535C116.576 21.8535 116.897 21.7674 117.205 21.5964C117.512 21.4254 117.752 21.186 117.922 20.8795C118.092 20.5731 118.177 20.253 118.177 19.9183C118.177 19.5824 118.09 19.259 117.916 18.9485C117.743 18.6379 117.502 18.3985 117.192 18.2318C116.883 18.0648 116.566 17.9809 116.242 17.9809ZM115.223 21.1987V18.705H116.082C116.376 18.705 116.588 18.7281 116.719 18.7742C116.851 18.8205 116.955 18.9002 117.034 19.0156C117.112 19.13 117.15 19.2518 117.15 19.3809C117.15 19.5624 117.085 19.7219 116.954 19.8563C116.824 19.9917 116.651 20.0673 116.435 20.084C116.523 20.1208 116.594 20.1649 116.647 20.2162C116.747 20.3139 116.87 20.4786 117.016 20.7105L117.32 21.1987H116.831L116.609 20.8061C116.435 20.4965 116.293 20.3023 116.186 20.2247C116.112 20.168 116.005 20.1396 115.864 20.1407H115.626V21.1987H115.223ZM115.626 19.7944H116.115C116.35 19.7944 116.509 19.7597 116.594 19.6905C116.679 19.6213 116.722 19.5289 116.722 19.4155C116.722 19.342 116.701 19.276 116.66 19.2181C116.619 19.1594 116.563 19.1164 116.49 19.0881C116.417 19.0597 116.282 19.045 116.085 19.045H115.626V19.7944Z" fill="black"/>
<path d="M1.99656 1.10144H1V6.94039H1.99656V1.10144Z" fill="black"/>
<path d="M16.1859 1.10144H15.2523V4.28788C15.2523 4.9997 15.3677 5.93194 15.3886 6.06752L12.4199 1.10144H11.1191V6.94039H12.0528V4.26241C12.0528 3.17771 11.9689 2.46584 11.9164 1.98279L14.8537 6.94039H16.1859V1.10144Z" fill="black"/>
<path d="M30.3753 1.10144H29.4417V4.28788C29.4417 4.9997 29.5571 5.93194 29.578 6.06752L26.6094 1.10144H25.3086V6.94039H26.2422V4.26241C26.2422 3.17771 26.1583 2.46584 26.1058 1.98279L29.0431 6.94039H30.3753V1.10144Z" fill="black"/>
<path d="M42.078 1C40.2737 1 39.0254 2.11012 39.0254 4.03388C39.0254 5.99145 40.2737 7.04229 42.078 7.04229C43.8928 7.04229 45.1306 5.95759 45.1306 4.02539C45.1306 2.05928 43.8928 1 42.078 1ZM42.078 1.66098C43.3158 1.66098 44.0711 2.34742 44.0711 4.02539C44.0711 5.72028 43.2948 6.38131 42.078 6.38131C40.9031 6.38131 40.0848 5.72028 40.0848 4.03388C40.0848 2.34742 40.8716 1.66098 42.078 1.66098Z" fill="black"/>
<path d="M58.4488 1.10144H57.4417L55.627 6.06752L53.8122 1.10144H52.7422L55.071 6.94039H56.1409L58.4488 1.10144Z" fill="black"/>
<path d="M70.2891 6.94039H71.3381L69.0302 1.10144H67.7714L65.4531 6.94039H66.4602L67.0057 5.47431H69.7436L70.2891 6.94039ZM67.2469 4.82177L68.3799 1.77091L69.5024 4.82177H67.2469Z" fill="black"/>
<path d="M83.2197 1.10144H78.0586V1.78789H80.1146V6.94039H81.1112V1.78789H83.1148L83.2197 1.10144Z" fill="black"/>
<path d="M92.3951 1.10144H91.3984V6.94039H92.3951V1.10144Z" fill="black"/>
<path d="M106.24 1.10144H105.233L103.418 6.06752L101.603 1.10144H100.533L102.862 6.94039H103.932L106.24 1.10144Z" fill="black"/>
<path d="M118.288 1.10144H114.375V6.94039H118.372V6.29634H115.372V4.29632H117.805V3.65227H115.372V1.74549H118.172L118.288 1.10144Z" fill="black"/>
<path d="M4.91285 53.0598H1V58.8988H4.99674V58.2547H1.99656V56.2547H4.43022V55.6106H1.99656V53.7039H4.79743L4.91285 53.0598Z" fill="black"/>
<path d="M16.7014 58.8988H17.8868L15.9356 56.2801C16.9742 56.0259 17.4987 55.5344 17.4987 54.7124C17.4987 53.6191 16.5546 53.0598 14.7503 53.0598H12.8516V58.8988H13.8482V56.4242H14.9706L16.7014 58.8988ZM13.8482 55.8056V53.6869H14.7398C15.9251 53.6869 16.4392 53.9835 16.4392 54.7124C16.4392 55.5005 15.8622 55.8056 14.8552 55.8056H13.8482Z" fill="black"/>
<path d="M28.0057 52.9576C26.3378 52.9576 24.8691 54.0085 24.8691 55.9745C24.8691 57.9915 26.0335 58.9999 27.9007 58.9999C28.8239 58.9999 29.5792 58.7966 30.2611 58.483V55.661H27.8798L27.9951 56.3135H29.275V58.0762C28.8659 58.2626 28.3833 58.339 27.9007 58.339C26.6314 58.339 25.9286 57.6525 25.9286 55.9745C25.9286 54.2542 26.9672 53.6186 28.0057 53.6186C28.6561 53.6186 29.0861 53.7627 29.5897 54.0932L30.1771 53.6017C29.5582 53.1865 28.9603 52.9576 28.0057 52.9576Z" fill="black"/>
<path d="M40.7811 52.9576C38.9768 52.9576 37.7285 54.0678 37.7285 55.9915C37.7285 57.9491 38.9768 58.9999 40.7811 58.9999C42.5959 58.9999 43.8337 57.9152 43.8337 55.983C43.8337 54.0169 42.5959 52.9576 40.7811 52.9576ZM40.7811 53.6186C42.0189 53.6186 42.7742 54.3051 42.7742 55.983C42.7742 57.6779 41.998 58.339 40.7811 58.339C39.6062 58.339 38.788 57.6779 38.788 55.9915C38.788 54.3051 39.5747 53.6186 40.7811 53.6186Z" fill="black"/>
<path d="M56.766 53.0598H55.8323V56.2463C55.8323 56.9581 55.9477 57.8903 55.9687 58.0259L53 53.0598H51.6992V58.8988H52.6328V56.2208C52.6328 55.1361 52.5489 54.4242 52.4964 53.9412L55.4337 58.8988H56.766V53.0598Z" fill="black"/>
<path d="M67.6835 52.9576C65.8792 52.9576 64.6309 54.0678 64.6309 55.9915C64.6309 57.9491 65.8792 58.9999 67.6835 58.9999C69.4983 58.9999 70.7361 57.9152 70.7361 55.983C70.7361 54.0169 69.4983 52.9576 67.6835 52.9576ZM67.6835 53.6186C68.9213 53.6186 69.6766 54.3051 69.6766 55.983C69.6766 57.6779 68.9004 58.339 67.6835 58.339C66.5086 58.339 65.6903 57.6779 65.6903 55.9915C65.6903 54.3051 66.4771 53.6186 67.6835 53.6186Z" fill="black"/>
<path d="M84.3915 53.0598H83.0383L81.5907 57.3055L80.0696 53.0598H78.7268L78.1289 58.8988H79.073L79.3143 56.3225C79.3982 55.4666 79.4507 54.5598 79.4507 53.8734L81.0976 58.2377H82.0313L83.5943 53.8818C83.6047 54.3649 83.6782 55.3479 83.7726 56.2632L84.0244 58.8988H84.9895L84.3915 53.0598Z" fill="black"/>
<path d="M93.9243 53.0598H92.9277V58.8988H93.9243V53.0598Z" fill="black"/>
<path d="M104.789 52.9576C103.153 52.9576 101.789 54 101.789 55.9745C101.789 57.9407 103.058 58.9999 104.81 58.9999C105.786 58.9999 106.478 58.6779 106.877 58.3474L106.384 57.8389C105.975 58.0847 105.524 58.322 104.842 58.322C103.719 58.322 102.849 57.661 102.849 55.9745C102.849 54.2118 103.761 53.6186 104.852 53.6186C105.356 53.6186 105.796 53.7542 106.247 54.0508L106.793 53.5339C106.216 53.161 105.702 52.9576 104.789 52.9576Z" fill="black"/>
<path d="M116.052 52.9576C114.72 52.9576 113.776 53.5847 113.776 54.483C113.776 55.3898 114.51 55.822 115.916 56.1694C117.143 56.4746 117.479 56.7288 117.479 57.2966C117.479 58 116.776 58.339 115.927 58.339C115.14 58.339 114.573 58.1101 114.028 57.7542L113.482 58.2457C114.08 58.7203 114.899 58.9999 115.937 58.9999C117.563 58.9999 118.518 58.2881 118.518 57.2711C118.518 56.1525 117.532 55.7881 116.378 55.5C115.077 55.1779 114.794 54.9407 114.794 54.4491C114.794 53.8898 115.371 53.6186 116.094 53.6186C116.692 53.6186 117.196 53.7712 117.741 54.1271L118.287 53.6356C117.678 53.1949 117.049 52.9576 116.052 52.9576Z" fill="black"/>
<path d="M1.99656 1.10144H1V6.94039H1.99656V1.10144Z" stroke="black" stroke-width="0.036931" stroke-miterlimit="22.9256"/>
<path d="M16.1859 1.10144H15.2523V4.28788C15.2523 4.9997 15.3677 5.93194 15.3886 6.06752L12.4199 1.10144H11.1191V6.94039H12.0528V4.26241C12.0528 3.17771 11.9689 2.46584 11.9164 1.98279L14.8537 6.94039H16.1859V1.10144Z" stroke="black" stroke-width="0.036931" stroke-miterlimit="22.9256"/>
<path d="M30.3753 1.10144H29.4417V4.28788C29.4417 4.9997 29.5571 5.93194 29.578 6.06752L26.6094 1.10144H25.3086V6.94039H26.2422V4.26241C26.2422 3.17771 26.1583 2.46584 26.1058 1.98279L29.0431 6.94039H30.3753V1.10144Z" stroke="black" stroke-width="0.036931" stroke-miterlimit="22.9256"/>
<path d="M42.078 1C40.2737 1 39.0254 2.11012 39.0254 4.03388C39.0254 5.99145 40.2737 7.04229 42.078 7.04229C43.8928 7.04229 45.1306 5.95759 45.1306 4.02539C45.1306 2.05928 43.8928 1 42.078 1ZM42.078 1.66098C43.3158 1.66098 44.0711 2.34742 44.0711 4.02539C44.0711 5.72028 43.2948 6.38131 42.078 6.38131C40.9031 6.38131 40.0848 5.72028 40.0848 4.03388C40.0848 2.34742 40.8716 1.66098 42.078 1.66098Z" stroke="black" stroke-width="0.036931" stroke-miterlimit="22.9256"/>
<path d="M58.4488 1.10144H57.4417L55.627 6.06752L53.8122 1.10144H52.7422L55.071 6.94039H56.1409L58.4488 1.10144Z" stroke="black" stroke-width="0.036931" stroke-miterlimit="22.9256"/>
<path d="M70.2891 6.94039H71.3381L69.0302 1.10144H67.7714L65.4531 6.94039H66.4602L67.0057 5.47431H69.7436L70.2891 6.94039ZM67.2469 4.82177L68.3799 1.77091L69.5024 4.82177H67.2469Z" stroke="black" stroke-width="0.036931" stroke-miterlimit="22.9256"/>
<path d="M83.2197 1.10144H78.0586V1.78789H80.1146V6.94039H81.1112V1.78789H83.1148L83.2197 1.10144Z" stroke="black" stroke-width="0.036931" stroke-miterlimit="22.9256"/>
<path d="M92.3951 1.10144H91.3984V6.94039H92.3951V1.10144Z" stroke="black" stroke-width="0.036931" stroke-miterlimit="22.9256"/>
<path d="M106.24 1.10144H105.233L103.418 6.06752L101.603 1.10144H100.533L102.862 6.94039H103.932L106.24 1.10144Z" stroke="black" stroke-width="0.036931" stroke-miterlimit="22.9256"/>
<path d="M118.288 1.10144H114.375V6.94039H118.372V6.29634H115.372V4.29632H117.805V3.65227H115.372V1.74549H118.172L118.288 1.10144Z" stroke="black" stroke-width="0.036931" stroke-miterlimit="22.9256"/>
<path d="M4.91285 53.0598H1V58.8988H4.99674V58.2547H1.99656V56.2547H4.43022V55.6106H1.99656V53.7039H4.79743L4.91285 53.0598Z" stroke="black" stroke-width="0.036931" stroke-miterlimit="22.9256"/>
<path d="M16.7014 58.8988H17.8868L15.9356 56.2801C16.9742 56.0259 17.4987 55.5344 17.4987 54.7124C17.4987 53.6191 16.5546 53.0598 14.7503 53.0598H12.8516V58.8988H13.8482V56.4242H14.9706L16.7014 58.8988ZM13.8482 55.8056V53.6869H14.7398C15.9251 53.6869 16.4392 53.9835 16.4392 54.7124C16.4392 55.5005 15.8622 55.8056 14.8552 55.8056H13.8482Z" stroke="black" stroke-width="0.036931" stroke-miterlimit="22.9256"/>
<path d="M28.0057 52.9576C26.3378 52.9576 24.8691 54.0085 24.8691 55.9745C24.8691 57.9915 26.0335 58.9999 27.9007 58.9999C28.8239 58.9999 29.5792 58.7966 30.2611 58.483V55.661H27.8798L27.9951 56.3135H29.275V58.0762C28.8659 58.2626 28.3833 58.339 27.9007 58.339C26.6314 58.339 25.9286 57.6525 25.9286 55.9745C25.9286 54.2542 26.9672 53.6186 28.0057 53.6186C28.6561 53.6186 29.0861 53.7627 29.5897 54.0932L30.1771 53.6017C29.5582 53.1865 28.9603 52.9576 28.0057 52.9576Z" stroke="black" stroke-width="0.036931" stroke-miterlimit="22.9256"/>
<path d="M40.7811 52.9576C38.9768 52.9576 37.7285 54.0678 37.7285 55.9915C37.7285 57.9491 38.9768 58.9999 40.7811 58.9999C42.5959 58.9999 43.8337 57.9152 43.8337 55.983C43.8337 54.0169 42.5959 52.9576 40.7811 52.9576ZM40.7811 53.6186C42.0189 53.6186 42.7742 54.3051 42.7742 55.983C42.7742 57.6779 41.998 58.339 40.7811 58.339C39.6062 58.339 38.788 57.6779 38.788 55.9915C38.788 54.3051 39.5747 53.6186 40.7811 53.6186Z" stroke="black" stroke-width="0.036931" stroke-miterlimit="22.9256"/>
<path d="M56.766 53.0598H55.8323V56.2463C55.8323 56.9581 55.9477 57.8903 55.9687 58.0259L53 53.0598H51.6992V58.8988H52.6328V56.2208C52.6328 55.1361 52.5489 54.4242 52.4964 53.9412L55.4337 58.8988H56.766V53.0598Z" stroke="black" stroke-width="0.036931" stroke-miterlimit="22.9256"/>
<path d="M67.6835 52.9576C65.8792 52.9576 64.6309 54.0678 64.6309 55.9915C64.6309 57.9491 65.8792 58.9999 67.6835 58.9999C69.4983 58.9999 70.7361 57.9152 70.7361 55.983C70.7361 54.0169 69.4983 52.9576 67.6835 52.9576ZM67.6835 53.6186C68.9213 53.6186 69.6766 54.3051 69.6766 55.983C69.6766 57.6779 68.9004 58.339 67.6835 58.339C66.5086 58.339 65.6903 57.6779 65.6903 55.9915C65.6903 54.3051 66.4771 53.6186 67.6835 53.6186Z" stroke="black" stroke-width="0.036931" stroke-miterlimit="22.9256"/>
<path d="M84.3915 53.0598H83.0383L81.5907 57.3055L80.0696 53.0598H78.7268L78.1289 58.8988H79.073L79.3143 56.3225C79.3982 55.4666 79.4507 54.5598 79.4507 53.8734L81.0976 58.2377H82.0313L83.5943 53.8818C83.6047 54.3649 83.6782 55.3479 83.7726 56.2632L84.0244 58.8988H84.9895L84.3915 53.0598Z" stroke="black" stroke-width="0.036931" stroke-miterlimit="22.9256"/>
<path d="M93.9243 53.0598H92.9277V58.8988H93.9243V53.0598Z" stroke="black" stroke-width="0.036931" stroke-miterlimit="22.9256"/>
<path d="M104.789 52.9576C103.153 52.9576 101.789 54 101.789 55.9745C101.789 57.9407 103.058 58.9999 104.81 58.9999C105.786 58.9999 106.478 58.6779 106.877 58.3474L106.384 57.8389C105.975 58.0847 105.524 58.322 104.842 58.322C103.719 58.322 102.849 57.661 102.849 55.9745C102.849 54.2118 103.761 53.6186 104.852 53.6186C105.356 53.6186 105.796 53.7542 106.247 54.0508L106.793 53.5339C106.216 53.161 105.702 52.9576 104.789 52.9576Z" stroke="black" stroke-width="0.036931" stroke-miterlimit="22.9256"/>
<path d="M116.052 52.9576C114.72 52.9576 113.776 53.5847 113.776 54.483C113.776 55.3898 114.51 55.822 115.916 56.1694C117.143 56.4746 117.479 56.7288 117.479 57.2966C117.479 58 116.776 58.339 115.927 58.339C115.14 58.339 114.573 58.1101 114.028 57.7542L113.482 58.2457C114.08 58.7203 114.899 58.9999 115.937 58.9999C117.563 58.9999 118.518 58.2881 118.518 57.2711C118.518 56.1525 117.532 55.7881 116.378 55.5C115.077 55.1779 114.794 54.9407 114.794 54.4491C114.794 53.8898 115.371 53.6186 116.094 53.6186C116.692 53.6186 117.196 53.7712 117.741 54.1271L118.287 53.6356C117.678 53.1949 117.049 52.9576 116.052 52.9576Z" stroke="black" stroke-width="0.036931" stroke-miterlimit="22.9256"/>
</svg>
